<svg width="22" height="22" viewBox="0 0 22 22" fill="none" xmlns="http://www.w3.org/2000/svg">
<path opacity="0.5" d="M15.8714 0H6.12857C2.75 0 0 2.75 0 6.12857V15.8714C0 19.25 2.75 22 6.12857 22H15.8714C19.25 22 22 19.25 22 15.8714V6.12857C22 2.75 19.25 0 15.8714 0ZM14.2214 7.30714H12.9643C12.4929 7.30714 12.3357 7.54286 12.3357 8.01429V9.11429H14.1429L13.9857 11H12.3357V17.4429H9.58571V11H7.77857V9.19286H9.58571V7.07143C9.58571 5.42143 10.45 4.63571 12.3357 4.63571H14.1429V7.30714H14.2214Z" fill="#B6AEBE"/>
</svg>
