<svg width="22" height="22" viewBox="0 0 22 22" fill="none" xmlns="http://www.w3.org/2000/svg">
<path opacity="0.5" d="M15.8714 0H6.12857C2.75 0 0 2.75 0 6.12857V15.8714C0 19.25 2.75 22 6.12857 22H15.8714C19.25 22 22 19.25 22 15.8714V6.12857C22 2.75 19.25 0 15.8714 0ZM6.36429 4.63571C7.07143 4.63571 7.62143 5.18571 7.62143 5.81429C7.62143 6.52143 7.07143 7.07143 6.36429 7.07143C5.73571 7.07143 5.18571 6.52143 5.18571 5.81429C5.18571 5.18571 5.73571 4.63571 6.36429 4.63571ZM5.18571 15.6357V8.01429H7.7V15.6357H5.18571ZM17.05 15.6357H14.5357V11.6286C14.5357 9.19286 11.55 9.42857 11.55 11.6286V15.6357H9.11429V8.01429H11.55V9.03571C12.5714 7.15 17.05 7.07143 17.05 10.8429V15.6357Z" fill="#B6AEBE"/>
</svg>
