<svg width="22" height="22" viewBox="0 0 22 22" fill="none" xmlns="http://www.w3.org/2000/svg">
<path opacity="0.5" d="M6.12857 0C2.75 0 0 2.75 0 6.12857V15.8714C0 19.25 2.75 22 6.12857 22H15.8714C19.25 22 22 19.25 22 15.8714V6.12857C22 2.75 19.25 0 15.8714 0H6.12857ZM18.3071 2.43571C19.0143 2.43571 19.5643 2.98571 19.5643 3.69286C19.5643 4.4 19.0143 4.95 18.3071 4.95C17.6 4.95 17.05 4.4 17.05 3.69286C17.05 2.98571 17.6786 2.43571 18.3071 2.43571ZM11 4.87143C14.3786 4.87143 17.1286 7.62143 17.1286 11C17.1286 14.3786 14.3786 17.1286 11 17.1286C7.62143 17.1286 4.87143 14.3786 4.87143 11C4.87143 7.62143 7.62143 4.87143 11 4.87143ZM11 7.30714C8.95714 7.30714 7.30714 8.95714 7.30714 11C7.30714 13.0429 8.95714 14.6929 11 14.6929C13.0429 14.6929 14.6929 13.0429 14.6929 11C14.6929 8.95714 13.0429 7.30714 11 7.30714Z" fill="#B6AEBE"/>
</svg>
