<svg width="18" height="18" viewBox="0 0 18 18" fill="none" xmlns="http://www.w3.org/2000/svg">
<mask id="mask0" mask-type="alpha" maskUnits="userSpaceOnUse" x="0" y="0" width="18" height="18">
<circle cx="9" cy="9" r="9" fill="#C4C4C4"/>
</mask>
<g mask="url(#mask0)">
<path fill-rule="evenodd" clip-rule="evenodd" d="M-5.625 -1.125H30.7125V0.346154H-5.625V-1.125ZM-5.625 1.81731H30.7125V3.28846H-5.625V1.81731ZM-5.625 4.75961H30.7125V6.23077H-5.625V4.75961ZM-5.625 7.70192H30.7125V9.17308H-5.625V7.70192ZM-5.625 10.6442H30.7125V12.1154H-5.625V10.6442ZM-5.625 13.5865H30.7125V15.0577H-5.625V13.5865ZM-5.625 16.5288H30.7125V18H-5.625V16.5288Z" fill="#C23D3D"/>
<path fill-rule="evenodd" clip-rule="evenodd" d="M-5.625 0.345703H30.7125V1.81686H-5.625V0.345703ZM-5.625 3.28801H30.7125V4.75916H-5.625V3.28801ZM-5.625 6.23032H30.7125V7.70147H-5.625V6.23032ZM-5.625 9.17262H30.7125V10.6438H-5.625V9.17262ZM-5.625 12.1149H30.7125V13.5861H-5.625V12.1149ZM-5.625 15.0572H30.7125V16.5284H-5.625V15.0572Z" fill="white"/>
<path fill-rule="evenodd" clip-rule="evenodd" d="M-5.625 -1.125H9V9H-5.625V-1.125Z" fill="#2D60C3"/>
<path fill-rule="evenodd" clip-rule="evenodd" d="M-3.99068 -1.125L-3.85303 -0.676424H-3.4676L-3.7842 -0.404074L-3.66032 0.028481L-3.99068 -0.243869L-4.29352 0.028481L-4.16963 -0.404074L-4.5 -0.676424H-4.08704L-3.99068 -1.125ZM-1.71941 -1.125L-1.59552 -0.676424H-1.19633L-1.5267 -0.404074L-1.38904 0.028481L-1.71941 -0.243869L-2.04978 0.028481L-1.91212 -0.404074L-2.24249 -0.676424H-1.8433L-1.71941 -1.125ZM0.551863 -1.125L0.675751 -0.676424H1.07494L0.744577 -0.404074L0.88223 0.028481L0.551863 -0.243869L0.221496 0.028481L0.359149 -0.404074L0.0287824 -0.676424H0.427976L0.551863 -1.125ZM2.80937 -1.125L2.94702 -0.676424H3.33245L3.01585 -0.404074L3.13974 0.028481L2.80937 -0.243869L2.49277 0.028481L2.61666 -0.404074L2.28629 -0.676424H2.69925L2.80937 -1.125ZM5.08064 -1.125L5.20453 -0.676424H5.60373L5.27336 -0.404074L5.41101 0.028481L5.06688 -0.243869L4.75028 0.028481L4.87417 -0.404074L4.5438 -0.676424H4.94299L5.08064 -1.125ZM7.35192 -1.125L7.47581 -0.676424H7.875L7.54463 -0.404074L7.68229 0.028481L7.35192 -0.243869L7.02155 0.028481L7.1592 -0.404074L6.82884 -0.676424H7.22803L7.35192 -1.125ZM-2.84816 -0.00356007L-2.72428 0.445016H-2.32508L-2.65545 0.717366L-2.5178 1.14992L-2.84816 0.877571L-3.17853 1.14992L-3.04088 0.717366L-3.37125 0.445016H-2.97205L-2.84816 -0.00356007ZM-0.590656 -0.00356007L-0.453003 0.445016H-0.067575L-0.384177 0.717366L-0.260289 1.14992L-0.590656 0.877571L-0.907258 1.14992L-0.78337 0.717366L-1.11374 0.445016H-0.700779L-0.590656 -0.00356007ZM1.68062 -0.00356007L1.8045 0.445016H2.2037L1.87333 0.717366L2.01098 1.14992L1.68062 0.877571L1.35025 1.14992L1.4879 0.717366L1.15754 0.445016H1.55673L1.68062 -0.00356007ZM3.95189 -0.00356007L4.07578 0.445016H4.47497L4.14461 0.717366L4.28226 1.14992L3.95189 0.877571L3.62152 1.14992L3.75918 0.717366L3.42881 0.445016H3.828L3.95189 -0.00356007ZM6.2094 -0.00356007L6.34705 0.445016H6.71872L6.40211 0.717366L6.526 1.14992L6.19563 0.877571L5.87903 1.14992L6.00292 0.717366L5.67255 0.445016H6.08551L6.2094 -0.00356007ZM-3.97692 1.11788L-3.8668 1.56646H-3.45384L-3.7842 1.83881L-3.66032 2.27136L-3.99068 1.99901L-4.29352 2.27136L-4.16963 1.83881L-4.5 1.56646H-4.08704L-3.97692 1.11788ZM-1.71941 1.11788L-1.59552 1.56646H-1.19633L-1.51293 1.83881L-1.38904 2.27136L-1.71941 1.99901L-2.03601 2.27136L-1.91212 1.83881L-2.24249 1.56646H-1.8433L-1.71941 1.11788ZM0.551863 1.11788L0.675751 1.56646H1.07494L0.744577 1.83881L0.88223 2.27136L0.551863 1.99901L0.221496 2.27136L0.359149 1.83881L0.0287824 1.56646H0.427976L0.551863 1.11788ZM2.80937 1.11788L2.94702 1.56646H3.33245L3.01585 1.83881L3.13974 2.27136L2.80937 1.99901L2.49277 2.27136L2.61666 1.83881L2.28629 1.56646H2.69925L2.80937 1.11788ZM5.08064 1.11788L5.20453 1.56646H5.60373L5.28712 1.83881L5.41101 2.27136L5.08064 1.99901L4.76404 2.27136L4.88793 1.83881L4.55756 1.56646H4.95676L5.08064 1.11788ZM7.35192 1.11788L7.47581 1.56646H7.875L7.54463 1.83881L7.68229 2.27136L7.35192 1.99901L7.02155 2.27136L7.1592 1.83881L6.82884 1.56646H7.22803L7.35192 1.11788ZM-2.84816 2.23932L-2.72428 2.6879H-2.32508L-2.65545 2.96025L-2.5178 3.3928L-2.84816 3.12045L-3.17853 3.3928L-3.04088 2.96025L-3.37125 2.6879H-2.97205L-2.84816 2.23932ZM-0.590656 2.23932L-0.453003 2.6879H-0.067575L-0.384177 2.96025L-0.260289 3.3928L-0.590656 3.12045L-0.907258 3.3928L-0.78337 2.96025L-1.11374 2.6879H-0.700779L-0.590656 2.23932ZM1.68062 2.23932L1.8045 2.6879H2.2037L1.8871 2.96025L2.01098 3.3928L1.68062 3.12045L1.36402 3.3928L1.4879 2.96025L1.15754 2.6879H1.55673L1.68062 2.23932ZM3.95189 2.23932L4.07578 2.6879H4.47497L4.14461 2.96025L4.28226 3.3928L3.95189 3.12045L3.62152 3.3928L3.75918 2.96025L3.42881 2.6879H3.828L3.95189 2.23932ZM6.2094 2.23932L6.34705 2.6879H6.71872L6.40211 2.96025L6.526 3.3928L6.19563 3.12045L5.87903 3.3928L6.00292 2.96025L5.67255 2.6879H6.08551L6.2094 2.23932ZM-3.97692 3.36076L-3.8668 3.80934H-3.45384L-3.7842 4.08169L-3.66032 4.51424L-3.99068 4.24189L-4.29352 4.51424L-4.16963 4.08169L-4.5 3.80934H-4.08704L-3.97692 3.36076ZM-1.71941 3.36076L-1.59552 3.80934H-1.19633L-1.51293 4.08169L-1.38904 4.51424L-1.71941 4.24189L-2.03601 4.51424L-1.91212 4.08169L-2.24249 3.80934H-1.8433L-1.71941 3.36076ZM0.551863 3.36076L0.675751 3.80934H1.07494L0.744577 4.08169L0.88223 4.51424L0.551863 4.24189L0.221496 4.51424L0.359149 4.08169L0.0287824 3.80934H0.427976L0.551863 3.36076ZM2.80937 3.36076L2.94702 3.80934H3.33245L3.01585 4.08169L3.13974 4.51424L2.80937 4.24189L2.49277 4.51424L2.61666 4.08169L2.28629 3.80934H2.69925L2.80937 3.36076ZM5.08064 3.36076L5.20453 3.80934H5.60373L5.28712 4.08169L5.41101 4.51424L5.08064 4.24189L4.76404 4.51424L4.88793 4.08169L4.55756 3.80934H4.95676L5.08064 3.36076ZM7.35192 3.36076L7.47581 3.80934H7.875L7.54463 4.08169L7.68229 4.51424L7.35192 4.24189L7.02155 4.51424L7.1592 4.08169L6.82884 3.80934H7.22803L7.35192 3.36076ZM-2.84816 4.4822L-2.72428 4.93078H-2.32508L-2.65545 5.20313L-2.5178 5.63568L-2.84816 5.36333L-3.17853 5.63568L-3.04088 5.20313L-3.37125 4.93078H-2.97205L-2.84816 4.4822ZM-0.590656 4.4822L-0.453003 4.93078H-0.067575L-0.384177 5.20313L-0.260289 5.63568L-0.590656 5.36333L-0.907258 5.63568L-0.78337 5.20313L-1.11374 4.93078H-0.700779L-0.590656 4.4822ZM1.68062 4.4822L1.8045 4.93078H2.2037L1.8871 5.20313L2.01098 5.63568L1.68062 5.36333L1.36402 5.63568L1.4879 5.20313L1.15754 4.93078H1.55673L1.68062 4.4822ZM3.95189 4.4822L4.07578 4.93078H4.47497L4.14461 5.20313L4.28226 5.63568L3.95189 5.36333L3.62152 5.63568L3.75918 5.20313L3.42881 4.93078H3.828L3.95189 4.4822ZM6.2094 4.4822L6.34705 4.93078H6.71872L6.40211 5.20313L6.526 5.63568L6.19563 5.36333L5.87903 5.63568L6.00292 5.20313L5.67255 4.93078H6.08551L6.2094 4.4822ZM-3.97692 5.60364L-3.8668 6.05222H-3.45384L-3.7842 6.32457L-3.66032 6.75712L-3.99068 6.48477L-4.29352 6.75712L-4.16963 6.32457L-4.5 6.05222H-4.08704L-3.97692 5.60364ZM-1.71941 5.60364L-1.59552 6.05222H-1.19633L-1.51293 6.32457L-1.38904 6.75712L-1.71941 6.48477L-2.03601 6.75712L-1.91212 6.32457L-2.24249 6.05222H-1.8433L-1.71941 5.60364ZM0.551863 5.60364L0.675751 6.05222H1.07494L0.744577 6.32457L0.88223 6.75712L0.551863 6.48477L0.221496 6.75712L0.359149 6.32457L0.0287824 6.05222H0.427976L0.551863 5.60364ZM2.80937 5.60364L2.94702 6.05222H3.33245L3.01585 6.32457L3.13974 6.75712L2.80937 6.48477L2.49277 6.75712L2.61666 6.32457L2.28629 6.05222H2.69925L2.80937 5.60364ZM5.08064 5.60364L5.20453 6.05222H5.60373L5.28712 6.32457L5.41101 6.75712L5.08064 6.48477L4.76404 6.75712L4.88793 6.32457L4.55756 6.05222H4.95676L5.08064 5.60364ZM7.35192 5.60364L7.47581 6.05222H7.875L7.54463 6.32457L7.68229 6.75712L7.35192 6.48477L7.02155 6.75712L7.1592 6.32457L6.82884 6.05222H7.22803L7.35192 5.60364ZM-2.84816 6.72508L-2.72428 7.17366H-2.32508L-2.65545 7.446L-2.5178 7.87856L-2.84816 7.60621L-3.17853 7.87856L-3.04088 7.446L-3.37125 7.17366H-2.97205L-2.84816 6.72508ZM-0.590656 6.72508L-0.453003 7.17366H-0.067575L-0.384177 7.446L-0.260289 7.87856L-0.590656 7.60621L-0.907258 7.87856L-0.78337 7.446L-1.11374 7.17366H-0.700779L-0.590656 6.72508ZM1.68062 6.72508L1.8045 7.17366H2.2037L1.8871 7.446L2.01098 7.87856L1.68062 7.60621L1.36402 7.87856L1.4879 7.446L1.15754 7.17366H1.55673L1.68062 6.72508ZM3.95189 6.72508L4.07578 7.17366H4.47497L4.14461 7.446L4.28226 7.87856L3.95189 7.60621L3.62152 7.87856L3.75918 7.446L3.42881 7.17366H3.828L3.95189 6.72508ZM6.2094 6.72508L6.34705 7.17366H6.71872L6.40211 7.446L6.526 7.87856L6.19563 7.60621L5.87903 7.87856L6.00292 7.446L5.67255 7.17366H6.08551L6.2094 6.72508ZM-3.97692 7.84652L-3.8668 8.2951H-3.45384L-3.7842 8.56744L-3.66032 9L-3.99068 8.72765L-4.29352 9L-4.16963 8.56744L-4.5 8.2951H-4.08704L-3.97692 7.84652ZM-1.71941 7.84652L-1.59552 8.2951H-1.19633L-1.51293 8.56744L-1.38904 9L-1.71941 8.72765L-2.03601 9L-1.91212 8.56744L-2.24249 8.2951H-1.8433L-1.71941 7.84652ZM0.551863 7.84652L0.675751 8.2951H1.07494L0.744577 8.56744L0.88223 9L0.551863 8.72765L0.221496 9L0.359149 8.56744L0.0287824 8.2951H0.427976L0.551863 7.84652ZM2.80937 7.84652L2.94702 8.2951H3.33245L3.01585 8.56744L3.13974 9L2.80937 8.72765L2.49277 9L2.61666 8.56744L2.28629 8.2951H2.69925L2.80937 7.84652ZM5.08064 7.84652L5.20453 8.2951H5.60373L5.28712 8.56744L5.41101 9L5.08064 8.72765L4.76404 9L4.88793 8.56744L4.55756 8.2951H4.95676L5.08064 7.84652ZM7.35192 7.84652L7.47581 8.2951H7.875L7.54463 8.56744L7.68229 9L7.35192 8.72765L7.02155 9L7.1592 8.56744L6.82884 8.2951H7.22803L7.35192 7.84652Z" fill="white"/>
</g>
</svg>
