<svg width="159" height="25" viewBox="0 0 159 25" fill="none" xmlns="http://www.w3.org/2000/svg">
<path d="M0 24.5146H11.267C19.3912 24.5146 24.5065 20.3455 24.5065 12.2408C24.5065 4.16934 19.3912 0.000226189 11.267 0.000226189H0V0.367108C2.10629 0.767344 2.47406 1.06752 2.47406 2.03476V22.4801C2.47406 23.4473 2.10629 23.7475 0 24.1478V24.5146ZM7.78993 23.9476V0.567226H11.267C16.3488 0.567226 18.9566 5.13658 18.9566 12.2408C18.9566 19.3449 16.3488 23.9476 11.267 23.9476H7.78993Z" fill="#222026"/>
<path d="M27.0461 24.5146H37.1764V24.1478C35.0701 23.7475 34.7023 23.4473 34.7023 22.4801V12.0406C35.2707 10.2729 36.7752 8.7387 38.2128 8.7387C39.5836 8.7387 40.9543 10.1395 41.5227 13.9418H41.9239L43.0606 6.4707C38.848 6.83758 36.1734 7.93822 34.8361 10.5064H34.7023V6.30393C32.4289 6.87093 30.1554 7.07105 27.0461 7.07105V7.43793C29.1524 7.83817 29.5202 8.13834 29.5202 9.10558V22.4801C29.5202 23.4473 29.1524 23.7475 27.0461 24.1478V24.5146Z" fill="#222026"/>
<path d="M57.9971 24.5144H69.264C77.3883 24.5144 82.5036 20.3453 82.5036 12.2405C82.5036 4.16912 77.3883 0 69.264 0H57.9971V0.366882C60.1034 0.767118 60.4711 1.0673 60.4711 2.03453V22.4799C60.4711 23.4471 60.1034 23.7473 57.9971 24.1475V24.5144ZM65.787 23.9474V0.566999H69.264C74.3459 0.566999 76.9537 5.13635 76.9537 12.2405C76.9537 19.3447 74.3459 23.9474 69.264 23.9474H65.787Z" fill="#222026"/>
<path d="M85.0432 24.5144H95.1735V24.1475C93.0672 23.7473 92.6994 23.4471 92.6994 22.4799V12.0404C93.2678 10.2727 94.7723 8.73847 96.2099 8.73847C97.5806 8.73847 98.9514 10.1393 99.5198 13.9415H99.921L101.058 6.47047C96.8451 6.83735 94.1705 7.938 92.8331 10.5062H92.6994V6.30371C90.4259 6.8707 88.1525 7.07082 85.0432 7.07082V7.4377C87.1495 7.83794 87.5173 8.13812 87.5173 9.10535V22.4799C87.5173 23.4471 87.1495 23.7473 85.0432 24.1475V24.5144Z" fill="#222026"/>
<path d="M112.978 24.8146C115.351 24.8146 117.625 24.0808 119.129 22.7133V22.2464C117.993 23.0802 116.321 23.6806 114.616 23.6806C111.841 23.6806 109.033 22.0796 108.498 17.3435C118.461 15.6759 120.534 14.6753 120.534 12.3406C120.534 9.37218 117.291 6.47047 112.476 6.47047C106.793 6.47047 103.081 10.2727 103.081 15.6092C103.081 21.9129 108.197 24.8146 112.978 24.8146ZM108.431 16.8099C108.397 16.4096 108.397 16.0094 108.397 15.6092C108.397 11.0065 109.601 7.03747 112.376 7.03747C114.783 7.03747 115.753 9.90582 115.753 12.3072C115.753 14.6753 114.616 15.4424 108.431 16.8099Z" fill="#222026"/>
<path d="M131.952 24.8146C136.298 24.8146 139.541 23.0469 139.541 19.3113C139.541 14.1083 133.189 13.041 129.912 11.907C128.207 11.3066 127.271 10.4728 127.271 9.33882C127.271 8.07141 128.508 7.03747 131.015 7.03747C133.623 7.03747 136.866 8.13812 137.602 12.1071H137.969V8.03806C135.763 7.00412 133.189 6.47047 130.882 6.47047C126.97 6.47047 123.694 8.0047 123.694 11.5068C123.694 16.2429 129.21 17.3769 132.152 18.4108C134.593 19.2446 135.729 20.2452 135.729 21.6461C135.729 23.2136 134.426 24.2142 131.918 24.2142C129.544 24.2142 125.499 23.3804 124.563 18.1773H124.195V23.2803C126.903 24.3143 129.578 24.8146 131.952 24.8146Z" fill="#222026"/>
<path d="M151.411 24.8146C155.757 24.8146 159 23.0469 159 19.3113C159 14.1083 152.648 13.041 149.371 11.907C147.666 11.3066 146.73 10.4728 146.73 9.33882C146.73 8.07141 147.967 7.03747 150.475 7.03747C153.082 7.03747 156.325 8.13812 157.061 12.1071H157.429V8.03806C155.222 7.00412 152.648 6.47047 150.341 6.47047C146.429 6.47047 143.153 8.0047 143.153 11.5068C143.153 16.2429 148.669 17.3769 151.611 18.4108C154.052 19.2446 155.189 20.2452 155.189 21.6461C155.189 23.2136 153.885 24.2142 151.377 24.2142C149.003 24.2142 144.958 23.3804 144.022 18.1773H143.654V23.2803C146.362 24.3143 149.037 24.8146 151.411 24.8146Z" fill="#222026"/>
<path d="M48.6931 22.796C48.3518 24.2928 46.9603 25.2532 45.5849 24.9412C44.2095 24.6291 43.3712 23.1628 43.7124 21.666C44.0536 20.1692 45.4452 19.2087 46.8205 19.5208C48.1959 19.8328 49.0343 21.2991 48.6931 22.796Z" fill="#222026"/>
</svg>
