<svg width="19" height="19" viewBox="0 0 19 19" fill="none" xmlns="http://www.w3.org/2000/svg">
<g clip-path="url(#clip0)">
<path d="M13.7 12.5H13.1L12.1 11.7L12.3 11.5C13.4 10.3 14 8.7 14 7C14 3.1 10.8 0 6.9 0C3 0 0 3.2 0 7C0 10.8 3.2 14 7 14C8.6 14 10.2 13.4 11.5 12.3L11.6 12.2L12.5 13.1V13.7L17.7 18.9L18.8 17.8L13.7 12.5ZM7 12.6C4 12.6 1.5 10.1 1.5 7C1.5 3.9 4 1.5 7 1.5C10 1.5 12.6 4 12.6 7C12.6 10 10.1 12.6 7 12.6Z" fill="#423E48"/>
</g>
<defs>
<clipPath id="clip0">
<rect width="19" height="18.9" fill="white"/>
</clipPath>
</defs>
</svg>
